<?xml version="1.0" encoding="utf-8"?>
<!-- Generator: Adobe Illustrator 26.3.1, SVG Export Plug-In . SVG Version: 6.00 Build 0)  -->
<svg version="1.1" id="레이어_1" xmlns="http://www.w3.org/2000/svg" xmlns:xlink="http://www.w3.org/1999/xlink" x="0px"
	 y="0px" viewBox="0 0 1083 238.6" style="enable-background:new 0 0 1083 238.6;" xml:space="preserve">
<style type="text/css">
	.st0{fill:#231815;}
</style>
<polygon class="st0" points="157.1,58.3 127.4,76 103.8,90 80.2,76.4 103.7,62.4 133.5,44.7 "/>
<polygon class="st0" points="152.5,13.6 116.9,35.1 87.3,52.9 87.3,52.9 63.9,67 40.4,53.4 63.8,39.3 93.4,21.5 129,0 "/>
<polygon class="st0" points="167.4,99.1 143.6,113 119.8,99.2 143.6,85.4 "/>
<polygon class="st0" points="0,238.6 0,169.4 25,154.8 47,167.6 22.1,182.1 22.1,200.3 120.8,143.3 22.1,86.3 22.1,103.5 
	67.8,155.7 0,116.2 0,48 165,143.3 "/>
<path class="st0" d="M208,186.9c-5.6-1.4-10.9-3.8-15.6-7.1l7.8-18.6c4,2.8,8.4,4.9,13.1,6.4c4.7,1.6,9.7,2.4,14.6,2.4
	c9.1,0,13.7-2.4,13.7-7.2c0-2.5-1.3-4.4-3.9-5.7c-4.1-1.7-8.3-3-12.6-3.9c-5.4-1.2-10.7-2.7-15.9-4.6c-4.3-1.6-8-4.4-11-7.9
	c-3.1-3.6-4.6-8.6-4.6-14.8c-0.1-5.2,1.4-10.3,4.2-14.7c3.1-4.6,7.4-8.2,12.6-10.4c5.6-2.5,12.4-3.8,20.5-3.8c5.5,0,11,0.7,16.3,2
	c5,1.2,9.8,3.1,14.2,5.8l-7.3,18.7c-8-4.6-15.8-6.9-23.3-6.9c-4.7,0-8.2,0.7-10.3,2.2c-2,1.2-3.3,3.4-3.2,5.8c0,2.4,1.3,4.2,3.8,5.3
	c4,1.6,8.1,2.9,12.4,3.7c5.4,1.1,10.7,2.7,15.9,4.6c4.2,1.7,8,4.4,10.9,7.9c3.1,3.6,4.6,8.5,4.6,14.7c0.1,5.1-1.4,10.2-4.2,14.5
	c-3.1,4.6-7.5,8.1-12.6,10.3c-5.6,2.6-12.4,3.9-20.4,3.9C221.1,189.6,214.4,188.7,208,186.9z"/>
<path class="st0" d="M292.6,118.8h-25.8v-20h75.3v20h-25.7v69h-23.8V118.8z"/>
<path class="st0" d="M387.8,164.1h-13v23.6H351v-89h38.4c6.8-0.2,13.6,1.2,19.8,4c5.4,2.5,9.9,6.4,13,11.4
	c3.1,5.3,4.7,11.3,4.6,17.5c0.1,5.9-1.3,11.7-4.3,16.8c-2.9,4.8-7.1,8.8-12.2,11.3l18.1,28H403L387.8,164.1z M399.1,122.1
	c-2.5-2.3-6.2-3.4-11.1-3.4h-13.2v26H388c4.9,0,8.6-1.1,11-3.4s3.7-5.4,3.7-9.6C402.8,127.6,401.5,124.3,399.1,122.1L399.1,122.1z"
	/>
<path class="st0" d="M507.4,168.3v19.5h-67.5v-89h65.9v19.4h-42.4v15h37.4v18.8h-37.4v16.3H507.4z"/>
<path class="st0" d="M576.9,170.5h-35.6l-6.6,17.3h-24.3l37.1-89H571l37.2,89h-24.7L576.9,170.5z M569.9,151.9l-10.8-28.5
	l-10.8,28.5H569.9z"/>
<path class="st0" d="M690.9,187.8l-0.2-47.1L669,179h-10.5L637,141.9v45.9h-22v-89h19.6l29.5,51.4l28.8-51.4h19.6l0.2,89H690.9z"/>
<path class="st0" d="M729.5,98.8h23.8v69h40.1v20h-63.9V98.8z"/>
<path class="st0" d="M819.9,183.6c-7-3.9-12.8-9.6-16.7-16.5c-8.1-14.8-8.1-32.7,0-47.6c3.9-6.9,9.7-12.7,16.7-16.5
	c15-8,32.9-8,47.9,0c7,3.9,12.7,9.6,16.7,16.5c8.1,14.8,8.1,32.7,0,47.6c-3.9,6.9-9.7,12.6-16.7,16.5
	C852.9,191.6,834.9,191.6,819.9,183.6z M855.4,165.5c3.5-2.2,6.3-5.3,8.2-9c4-8.4,4-18.2,0-26.6c-1.8-3.7-4.7-6.8-8.2-9
	c-7.1-4.2-16-4.2-23.1,0c-3.5,2.2-6.3,5.3-8.2,9c-4,8.4-4,18.2,0,26.6c1.8,3.7,4.7,6.8,8.2,9C839.5,169.8,848.3,169.8,855.4,165.5z"
	/>
<path class="st0" d="M958.2,170.5h-35.5l-6.6,17.3h-24.2l37.1-89h23.4l37.2,89h-24.7L958.2,170.5z M951.2,151.9l-10.8-28.5
	l-10.8,28.5H951.2z"/>
<path class="st0" d="M996.3,98.8h39.7c8.5-0.2,16.9,1.7,24.5,5.5c6.9,3.4,12.7,8.8,16.6,15.5c3.9,6.7,5.9,14.5,5.9,23.5
	c0,9-2,16.9-5.9,23.5c-3.9,6.7-9.7,12.1-16.6,15.5c-7.6,3.8-16,5.6-24.5,5.5h-39.7V98.8z M1035.1,167.7c7.2,0,13-2.2,17.4-6.5
	s6.6-10.3,6.6-17.9c0-7.6-2.2-13.6-6.5-17.9c-4.4-4.3-10.1-6.5-17.4-6.5h-15v48.8H1035.1z"/>
</svg>
